<svg xmlns="http://www.w3.org/2000/svg"><defs><style>.a{fill:#414042;}</style></defs><title>Personal Logo</title><path class="a" d="M39.42,33.53c-0.62-.61-2.45-5.65-2.55-1.42,0,0.38-.16,1.27-0.14,2a0.25,0.25,0,0,1,0,0c-0.29,1.8-1.17,6-2,5.21-0.62-.61.15-3.19,0.39-3.93,0.8-2.49-2.87-.87-2.4,2.14v0.06c2.36,6.86,4.09,1.35,4.44-2,0-.08.05-1.07,0.15-1.85a0.29,0.29,0,0,1,.55-0.08c0.43,0.93,1.23,2.15,1.71,1.15a10.25,10.25,0,0,1,1.5-2.35c2.16,3.05-.71,4.47,0,7.62,1.5,6.58,3.71.44,2.71-3.1-0.22-.79.87-2.53,0-2.58-1.24-.07-1.44-1.59-1.94-2.8C40.64,28.57,39.61,33.71,39.42,33.53Zm-5.82,2.18v0c0.37-.91.47-1,0.88-0.91s-0.1,1.53-.43,2.32a0.29,0.29,0,0,1-.54,0A2.28,2.28,0,0,1,33.61,35.71Zm9.08,6.49c-0.27.71-1.1-2.39-1.08-2.34a10.26,10.26,0,0,1,.57-2.28c0.05-.18,0-0.05,0,0h0a0.29,0.29,0,0,1,.54.14A30.2,30.2,0,0,1,42.69,42.2Z"/><polygon class="a" points="29.25 28.62 25.56 32.32 29.29 36.05 36.88 28.62 29.17 21.24 29.17 21.24 25.51 24.89 29.25 28.62"/><polygon class="a" points="19.83 19.04 19.88 18.99 19.85 9.98 12.94 16.9 12.94 35.58 19.85 28.58 19.85 28.58 19.83 19.04"/><polygon class="a" points="20.84 28.58 20.84 28.58 20.89 28.53 20.84 28.58"/><polygon class="a" points="28.31 36.05 24.57 32.32 20.84 28.58 20.84 28.58 20.84 36.05 20.84 36.05 20.84 36.05 20.84 38.14 29.88 47.18 39.44 47.18 28.31 36.05"/><polygon class="a" points="20.84 28.58 20.84 28.58 20.84 28.58 20.84 28.58"/><polygon class="a" points="29.88 9.98 20.86 18.99 20.89 28.53 24.53 24.89 28.18 21.24 39.44 9.98 29.88 9.98"/><polygon class="a" points="20.84 28.58 20.89 28.53 20.89 28.53 20.86 18.99 20.82 19.04 20.84 28.58"/><path class="a" d="M28.6,53.6a25,25,0,1,1,25-25A25,25,0,0,1,28.6,53.6Zm0-47.7a22.7,22.7,0,1,0,22.7,22.7A22.73,22.73,0,0,0,28.6,5.9Z"/></svg>